<?xml version="1.0" encoding="UTF-8" standalone="no"?>
<!DOCTYPE svg PUBLIC "-//W3C//DTD SVG 1.1//EN"
 "http://www.w3.org/Graphics/SVG/1.1/DTD/svg11.dtd">
<!-- Generated by graphviz version 14.0.1 (20251006.0113)
 -->
<!-- Title: G Pages: 1 -->
<svg width="468pt" height="505pt"
 viewBox="0.00 0.00 468.00 505.00" xmlns="http://www.w3.org/2000/svg" xmlns:xlink="http://www.w3.org/1999/xlink">
<g id="graph0" class="graph" transform="scale(1 1) rotate(0) translate(4 501)">
<title>G</title><style>.edge>path:hover{stroke-width:8}</style>
<polygon fill="white" stroke="none" points="-4,4 -4,-501 464.21,-501 464.21,4 -4,4"/>
<!-- app_api -->
<g id="node1" class="node">
<title>app_api</title><style>.edge>path:hover{stroke-width:8}</style>
<ellipse fill="#c24747" stroke="black" cx="116" cy="-90" rx="28.11" ry="18"/>
<text xml:space="preserve" text-anchor="middle" x="116" y="-86.12" font-family="Helvetica,sans-Serif" font-size="10.00" fill="#ffffff">app.api</text>
</g>
<!-- app_main -->
<g id="node6" class="node">
<title>app_main</title><style>.edge>path:hover{stroke-width:8}</style>
<ellipse fill="#883a3a" stroke="black" cx="144" cy="-18" rx="32.99" ry="18"/>
<text xml:space="preserve" text-anchor="middle" x="144" y="-14.12" font-family="Helvetica,sans-Serif" font-size="10.00" fill="#ffffff">app.main</text>
</g>
<!-- app_api&#45;&gt;app_main -->
<g id="edge1" class="edge">
<title>app_api&#45;&gt;app_main</title><style>.edge>path:hover{stroke-width:8}</style>
<path fill="none" stroke="black" d="M122.78,-72.05C125.87,-64.32 129.62,-54.96 133.09,-46.27"/>
<polygon fill="#c24747" stroke="black" points="136.26,-47.78 136.72,-37.19 129.76,-45.18 136.26,-47.78"/>
</g>
<!-- app_api_v1 -->
<g id="node2" class="node">
<title>app_api_v1</title><style>.edge>path:hover{stroke-width:8}</style>
<ellipse fill="#c24747" stroke="black" cx="108" cy="-162" rx="36.09" ry="18"/>
<text xml:space="preserve" text-anchor="middle" x="108" y="-158.12" font-family="Helvetica,sans-Serif" font-size="10.00" fill="#ffffff">app.api.v1</text>
</g>
<!-- app_api_v1&#45;&gt;app_main -->
<g id="edge2" class="edge">
<title>app_api_v1&#45;&gt;app_main</title><style>.edge>path:hover{stroke-width:8}</style>
<path fill="none" stroke="black" d="M172,-89C172.36,-73.77 166.6,-57.91 160.22,-45.15"/>
<polygon fill="#c24747" stroke="black" points="163.4,-43.69 155.55,-36.58 157.26,-47.03 163.4,-43.69"/>
<path fill="none" stroke="black" d="M131.17,-147.88C149.25,-135.75 171.41,-115.86 172,-91"/>
</g>
<!-- app_api_v1_events -->
<g id="node3" class="node">
<title>app_api_v1_events</title><style>.edge>path:hover{stroke-width:8}</style>
<ellipse fill="#993333" stroke="black" cx="255" cy="-253.48" rx="32" ry="37.48"/>
<text xml:space="preserve" text-anchor="middle" x="255" y="-266.48" font-family="Helvetica,sans-Serif" font-size="10.00" fill="#ffffff">app.</text>
<text xml:space="preserve" text-anchor="middle" x="255" y="-255.23" font-family="Helvetica,sans-Serif" font-size="10.00" fill="#ffffff">api.</text>
<text xml:space="preserve" text-anchor="middle" x="255" y="-243.98" font-family="Helvetica,sans-Serif" font-size="10.00" fill="#ffffff">v1.</text>
<text xml:space="preserve" text-anchor="middle" x="255" y="-232.73" font-family="Helvetica,sans-Serif" font-size="10.00" fill="#ffffff">events</text>
</g>
<!-- app_api_v1_events&#45;&gt;app_main -->
<g id="edge3" class="edge">
<title>app_api_v1_events&#45;&gt;app_main</title><style>.edge>path:hover{stroke-width:8}</style>
<path fill="none" stroke="black" d="M229.9,-229.42C204.86,-205.85 170.33,-171.53 172,-163"/>
</g>
<!-- app_api_v1_metrics -->
<g id="node4" class="node">
<title>app_api_v1_metrics</title><style>.edge>path:hover{stroke-width:8}</style>
<ellipse fill="#a83838" stroke="black" cx="87" cy="-253.48" rx="34.12" ry="37.48"/>
<text xml:space="preserve" text-anchor="middle" x="87" y="-266.48" font-family="Helvetica,sans-Serif" font-size="10.00" fill="#ffffff">app.</text>
<text xml:space="preserve" text-anchor="middle" x="87" y="-255.23" font-family="Helvetica,sans-Serif" font-size="10.00" fill="#ffffff">api.</text>
<text xml:space="preserve" text-anchor="middle" x="87" y="-243.98" font-family="Helvetica,sans-Serif" font-size="10.00" fill="#ffffff">v1.</text>
<text xml:space="preserve" text-anchor="middle" x="87" y="-232.73" font-family="Helvetica,sans-Serif" font-size="10.00" fill="#ffffff">metrics</text>
</g>
<!-- app_api_v1_metrics&#45;&gt;app_main -->
<g id="edge4" class="edge">
<title>app_api_v1_metrics&#45;&gt;app_main</title><style>.edge>path:hover{stroke-width:8}</style>
<path fill="none" stroke="black" d="M113.85,-230.09C137.53,-209.42 168.77,-179.51 172,-163"/>
</g>
<!-- app_api_v1_reports -->
<g id="node5" class="node">
<title>app_api_v1_reports</title><style>.edge>path:hover{stroke-width:8}</style>
<ellipse fill="#a83838" stroke="black" cx="172" cy="-253.48" rx="32.53" ry="37.48"/>
<text xml:space="preserve" text-anchor="middle" x="172" y="-266.48" font-family="Helvetica,sans-Serif" font-size="10.00" fill="#ffffff">app.</text>
<text xml:space="preserve" text-anchor="middle" x="172" y="-255.23" font-family="Helvetica,sans-Serif" font-size="10.00" fill="#ffffff">api.</text>
<text xml:space="preserve" text-anchor="middle" x="172" y="-243.98" font-family="Helvetica,sans-Serif" font-size="10.00" fill="#ffffff">v1.</text>
<text xml:space="preserve" text-anchor="middle" x="172" y="-232.73" font-family="Helvetica,sans-Serif" font-size="10.00" fill="#ffffff">reports</text>
</g>
<!-- app_api_v1_reports&#45;&gt;app_main -->
<g id="edge5" class="edge">
<title>app_api_v1_reports&#45;&gt;app_main</title><style>.edge>path:hover{stroke-width:8}</style>
<path fill="none" stroke="black" d="M168.84,-216.04C168.23,-199.68 168.63,-180.23 172,-163"/>
</g>
<!-- fastapi -->
<g id="node7" class="node">
<title>fastapi</title><style>.edge>path:hover{stroke-width:8}</style>
<ellipse fill="#85db2f" stroke="black" cx="27" cy="-467.48" rx="27" ry="18"/>
<text xml:space="preserve" text-anchor="middle" x="27" y="-463.6" font-family="Helvetica,sans-Serif" font-size="10.00" fill="#000000">fastapi</text>
</g>
<!-- fastapi&#45;&gt;app_api_v1_events -->
<g id="edge6" class="edge">
<title>fastapi&#45;&gt;app_api_v1_events</title><style>.edge>path:hover{stroke-width:8}</style>
<path fill="none" stroke="black" d="M42.11,-452.06C48.19,-446.94 55.53,-441.56 63,-437.95 126.3,-407.39 183.89,-463.95 217,-401.95"/>
<path fill="none" stroke="black" d="M217,-400.95C226.2,-383.73 237.52,-337.14 245.41,-301.08"/>
<polygon fill="#85db2f" stroke="black" points="248.73,-302.26 247.42,-291.75 241.89,-300.79 248.73,-302.26"/>
</g>
<!-- fastapi&#45;&gt;app_api_v1_metrics -->
<g id="edge7" class="edge">
<title>fastapi&#45;&gt;app_api_v1_metrics</title><style>.edge>path:hover{stroke-width:8}</style>
<path fill="none" stroke="black" d="M65,-326.95C64.43,-317.53 65.91,-307.69 68.33,-298.41"/>
<polygon fill="#85db2f" stroke="black" points="71.67,-299.47 71.25,-288.88 64.98,-297.42 71.67,-299.47"/>
</g>
<!-- fastapi&#45;&gt;app_api_v1_reports -->
<g id="edge8" class="edge">
<title>fastapi&#45;&gt;app_api_v1_reports</title><style>.edge>path:hover{stroke-width:8}</style>
<path fill="none" stroke="black" d="M141,-400.95C146.61,-367.34 154.6,-329.74 161.07,-301.05"/>
<polygon fill="#85db2f" stroke="black" points="164.41,-302.13 163.22,-291.61 157.59,-300.58 164.41,-302.13"/>
<path fill="none" stroke="black" d="M42.89,-452.55C48.95,-447.61 56.07,-442.21 63,-437.95 95.53,-417.96 131.43,-438.92 141,-401.95"/>
</g>
<!-- fastapi&#45;&gt;app_main -->
<g id="edge9" class="edge">
<title>fastapi&#45;&gt;app_main</title><style>.edge>path:hover{stroke-width:8}</style>
<path fill="none" stroke="black" d="M172,-161C177.98,-130.47 171.26,-122.1 172,-91"/>
<path fill="none" stroke="black" d="M65,-326.95C63.88,-308.46 48.83,-308.83 44,-290.95 35.31,-258.8 24.48,-243 44,-216 80.07,-166.1 160.17,-223.43 172,-163"/>
<path fill="none" stroke="black" d="M34.86,-449.82C46.19,-424.2 65.69,-373.33 65,-327.95"/>
</g>
<!-- pydantic -->
<g id="node8" class="node">
<title>pydantic</title><style>.edge>path:hover{stroke-width:8}</style>
<ellipse fill="#40bfc0" stroke="black" cx="429" cy="-467.48" rx="31.21" ry="18"/>
<text xml:space="preserve" text-anchor="middle" x="429" y="-463.6" font-family="Helvetica,sans-Serif" font-size="10.00" fill="#000000">pydantic</text>
</g>
<!-- pydantic&#45;&gt;app_api_v1_events -->
<g id="edge10" class="edge">
<title>pydantic&#45;&gt;app_api_v1_events</title><style>.edge>path:hover{stroke-width:8}</style>
<path fill="none" stroke="black" d="M416.21,-450.89C388.54,-417.18 322.56,-336.79 284.13,-289.97"/>
<polygon fill="#40bfc0" stroke="black" points="286.84,-287.76 277.79,-282.25 281.43,-292.2 286.84,-287.76"/>
</g>
<!-- sqlalchemy -->
<g id="node9" class="node">
<title>sqlalchemy</title><style>.edge>path:hover{stroke-width:8}</style>
<ellipse fill="#7f0cf3" stroke="black" cx="111" cy="-467.48" rx="38.76" ry="18"/>
<text xml:space="preserve" text-anchor="middle" x="111" y="-463.6" font-family="Helvetica,sans-Serif" font-size="10.00" fill="#ffffff">sqlalchemy</text>
</g>
<!-- sqlalchemy&#45;&gt;app_api_v1_events -->
<g id="edge11" class="edge">
<title>sqlalchemy&#45;&gt;app_api_v1_events</title><style>.edge>path:hover{stroke-width:8}</style>
<path fill="none" stroke="black" d="M134.11,-452.61C165.12,-433.96 216.43,-403.01 217,-401.95"/>
</g>
<!-- sqlalchemy&#45;&gt;app_api_v1_metrics -->
<g id="edge12" class="edge">
<title>sqlalchemy&#45;&gt;app_api_v1_metrics</title><style>.edge>path:hover{stroke-width:8}</style>
<path fill="none" stroke="black" d="M103,-400.95C90.74,-369.62 86.85,-331.81 85.97,-302.46"/>
<polygon fill="#7f0cf3" stroke="black" points="89.48,-302.7 85.8,-292.76 82.48,-302.83 89.48,-302.7"/>
<path fill="none" stroke="black" d="M112.29,-449.22C112.54,-435.56 111.1,-416.43 103,-401.95"/>
</g>
<!-- sqlalchemy&#45;&gt;app_api_v1_reports -->
<g id="edge13" class="edge">
<title>sqlalchemy&#45;&gt;app_api_v1_reports</title><style>.edge>path:hover{stroke-width:8}</style>
<path fill="none" stroke="black" d="M121.83,-449.78C129.2,-437.22 138.11,-419.26 141,-401.95"/>
</g>
<!-- sqlalchemy_orm -->
<g id="node10" class="node">
<title>sqlalchemy_orm</title><style>.edge>path:hover{stroke-width:8}</style>
<ellipse fill="#7a18dd" stroke="black" cx="217" cy="-467.48" rx="49.41" ry="18"/>
<text xml:space="preserve" text-anchor="middle" x="217" y="-463.6" font-family="Helvetica,sans-Serif" font-size="10.00" fill="#ffffff">sqlalchemy.orm</text>
</g>
<!-- sqlalchemy_orm&#45;&gt;app_api_v1_events -->
<g id="edge14" class="edge">
<title>sqlalchemy_orm&#45;&gt;app_api_v1_events</title><style>.edge>path:hover{stroke-width:8}</style>
<path fill="none" stroke="black" d="M212.78,-449.24C210.39,-435.6 209.24,-416.48 217,-401.95"/>
</g>
<!-- sqlalchemy_orm&#45;&gt;app_api_v1_metrics -->
<g id="edge15" class="edge">
<title>sqlalchemy_orm&#45;&gt;app_api_v1_metrics</title><style>.edge>path:hover{stroke-width:8}</style>
<path fill="none" stroke="black" d="M188.65,-452.38C156.44,-436.07 107.72,-410.39 103,-401.95"/>
</g>
<!-- sqlalchemy_orm&#45;&gt;app_api_v1_reports -->
<g id="edge16" class="edge">
<title>sqlalchemy_orm&#45;&gt;app_api_v1_reports</title><style>.edge>path:hover{stroke-width:8}</style>
<path fill="none" stroke="black" d="M191.99,-451.82C168.98,-437.4 138.72,-415.61 141,-401.95"/>
</g>
<!-- sqlalchemy_orm_Session -->
<g id="node11" class="node">
<title>sqlalchemy_orm_Session</title><style>.edge>path:hover{stroke-width:8}</style>
<ellipse fill="#7a31c4" stroke="black" cx="332" cy="-467.48" rx="47.38" ry="29.52"/>
<text xml:space="preserve" text-anchor="middle" x="332" y="-474.85" font-family="Helvetica,sans-Serif" font-size="10.00" fill="#ffffff">sqlalchemy.</text>
<text xml:space="preserve" text-anchor="middle" x="332" y="-463.6" font-family="Helvetica,sans-Serif" font-size="10.00" fill="#ffffff">orm.</text>
<text xml:space="preserve" text-anchor="middle" x="332" y="-452.35" font-family="Helvetica,sans-Serif" font-size="10.00" fill="#ffffff">Session</text>
</g>
<!-- sqlalchemy_orm_Session&#45;&gt;app_api_v1_events -->
<g id="edge17" class="edge">
<title>sqlalchemy_orm_Session&#45;&gt;app_api_v1_events</title><style>.edge>path:hover{stroke-width:8}</style>
<path fill="none" stroke="black" d="M255,-326.95C252.97,-319.18 251.95,-310.77 251.57,-302.52"/>
<polygon fill="#7a31c4" stroke="black" points="255.07,-302.53 251.43,-292.58 248.07,-302.63 255.07,-302.53"/>
</g>
<!-- sqlalchemy_orm_Session&#45;&gt;app_api_v1_metrics -->
<g id="edge18" class="edge">
<title>sqlalchemy_orm_Session&#45;&gt;app_api_v1_metrics</title><style>.edge>path:hover{stroke-width:8}</style>
<path fill="none" stroke="black" d="M295.38,-448.16C257.24,-429.08 203,-401.95 203,-401.95 165.7,-371.55 132.83,-327.13 111.69,-294.99"/>
<polygon fill="#7a31c4" stroke="black" points="114.7,-293.21 106.33,-286.71 108.82,-297.01 114.7,-293.21"/>
</g>
<!-- sqlalchemy_orm_Session&#45;&gt;app_api_v1_reports -->
<g id="edge19" class="edge">
<title>sqlalchemy_orm_Session&#45;&gt;app_api_v1_reports</title><style>.edge>path:hover{stroke-width:8}</style>
<path fill="none" stroke="black" d="M255,-326.95C254.89,-326.54 229.09,-304.05 206.29,-284.23"/>
<polygon fill="#7a31c4" stroke="black" points="208.74,-281.73 198.9,-277.81 204.15,-287.01 208.74,-281.73"/>
<path fill="none" stroke="black" d="M312.16,-440.36C293.26,-413.74 266.1,-370.41 255,-327.95"/>
</g>
</g>
</svg>
